<?xml version="1.0" encoding="UTF-8" standalone="no"?>
<svg width="38px" height="29px" viewBox="0 0 38 29" version="1.1" xmlns="http://www.w3.org/2000/svg" xmlns:xlink="http://www.w3.org/1999/xlink">
    <!-- Generator: sketchtool 3.7.1 (28215) - http://www.bohemiancoding.com/sketch -->
    <title>Bird</title>
    <desc>Created with sketchtool.</desc>
    <defs>
        <polygon id="path-1" points="16.2253968 0.30214375 9.53015873 0.30214375 9.53015873 11.1166667 16.2253968 11.1166667 16.2253968 0.30214375"></polygon>
    </defs>
    <g id="Web-Copy" stroke="none" stroke-width="1" fill="none" fill-rule="evenodd">
        <g id="Homepage---log-in" transform="translate(-21.000000, -5.000000)">
            <g id="Logo" transform="translate(21.000000, 5.000000)">
                <g id="Bird">
                    <path d="M35.6777778,24.5895833 C35.7079365,24.46875 35.7380952,24.3177083 35.7380952,24.196875 C35.7380952,23.5927083 35.4063492,23.0791667 34.9238095,22.8375 L0,3.14166667 C0,4.89375 0.934920635,6.49479167 2.47301587,7.37083333 L14.8079365,14.31875 L16.4063492,18.578125 C12.1539683,15.9197917 6.51428571,16.4333333 2.83492063,20.1489583 L18.215873,28.45625 C19.9650794,29.3927083 22.1365079,29.090625 23.5539683,27.6708333 L25.4238095,25.7979167 L37.7587302,25.7979167 L35.6777778,24.5895833 Z" id="Fill-1" fill="#f0f0f0"></path>
                    <path d="M31.4555556,19.665625 C32.7222222,18.0645833 32.7825397,15.7989583 31.5460317,14.1072917 L25.4238095,5.95104167 C23.0412698,8.3375 22.1063492,11.6302083 22.6492063,14.7114583 L31.4555556,19.665625 Z" id="Fill-3" fill="#f0f0f0"></path>
                    <mask id="mask-2" fill="#f0f0f0">
                        <use xlink:href="#path-1"></use>
                    </mask>
                    <g id="Clip-6"></g>
                    <path d="M16.2253968,11.1166667 L13.0888889,2.77916667 C12.5460317,1.29895833 11.1285714,0.302083333 9.53015873,0.302083333 L12.8777778,9.21354167 L16.2253968,11.1166667 Z" id="Fill-5" fill="#f0f0f0"></path>
                    <path d="M34.1698413,23.6833333 C34.4530317,23.6833333 34.6825397,23.9132188 34.6825397,24.196875 C34.6825397,24.4805313 34.4530317,24.7104167 34.1698413,24.7104167 C33.8866508,24.7104167 33.6571429,24.4805313 33.6571429,24.196875 C33.6571429,23.9132188 33.8866508,23.6833333 34.1698413,23.6833333" id="Fill-8" fill="#0F9BE4"></path>
                </g>
            </g>
        </g>
    </g>
</svg>